# xmcd CD database file
#
# Track frame offsets:
#	150
#	16547
#	42472
#	69275
#	87832
#	113020
#	124267
#	162895
#	188592
#
# Disc length: 3319 seconds
#
# Revision: 3
# Processed by: cddbd v1.5.1PL0 Copyright (c) Steve Scherf et al.
# Submitted via: CDex 1.51
#
DISCID=640cf509
DTITLE=Buddy Rich - No Jive
DYEAR=1971
DGENRE=Jazz
TTITLE0=Ya Gotta Try
TTITLE1=Tales Of Rhoda Rat
TTITLE2=No Jive
TTITLE3=Lush Life
TTITLE4=Party Time
TTITLE5=Storm At Sunup
TTITLE6=Love Me Now
TTITLE7=Yearnin' Learnin'
TTITLE8=A Piece Of The Road Suite
EXTD=YEAR: 1971
EXTT0=
EXTT1=
EXTT2=
EXTT3=
EXTT4=
EXTT5=
EXTT6=
EXTT7=
EXTT8=
PLAYORDER=
